# Blender v2.76 (sub 0) OBJ File: 'vertical_fat.blend'
# www.blender.org
mtllib vertical_fat.mtl
o Cube
v 6.499997 0.000000 -6.499997
v 6.499997 0.000000 6.499997
v -6.499998 0.000000 6.499996
v -2.500000 0.000000 2.200000
v 2.500000 0.000000 2.200000
v 2.500000 0.000000 -2.200000
v -2.500000 0.000000 -2.200000
v -6.499995 0.000000 -6.500000
v 6.500000 4.000000 -6.499994
v -6.499997 4.000000 -6.499997
v 6.499993 4.000000 6.500001
v -6.500000 4.000000 6.499995
v 2.500000 4.000000 3.575824
v -2.500000 4.000000 3.575824
v -2.500000 4.000000 2.200000
v -2.500000 4.000000 2.200000
v -2.500000 4.000000 -2.200000
v -2.500000 4.000000 -2.200000
v -2.500000 4.000000 -3.575824
v 2.500000 4.000000 -3.575824
v 2.500000 4.000000 -2.200000
v 2.500000 4.000000 -2.200000
v 2.500000 4.000000 2.200000
v 2.500000 4.000000 2.200000
v -2.500000 2.866122 2.200000
v 2.500000 2.866122 2.200000
v 2.500000 3.071052 2.583399
v 2.500000 3.649339 3.288044
v -2.500000 3.071053 2.583399
v -2.500000 3.649340 3.288044
v 2.500000 2.866122 -2.200000
v -2.500000 2.866122 -2.200000
v -2.500000 3.071058 -2.583406
v -2.500000 3.649346 -3.288050
v 2.500000 3.071057 -2.583406
v 2.500000 3.649345 -3.288050
vn 0.000000 -1.000000 0.000000
vn 0.000000 0.000000 -1.000000
vn 1.000000 0.000000 0.000000
vn -0.000000 -0.000000 1.000000
vn -1.000000 -0.000000 -0.000000
vn 0.000000 1.000000 0.000000
vn 0.000000 0.881900 -0.471400
vn 0.000000 0.634400 -0.773000
vn 0.000000 0.773000 -0.634400
vn 0.000000 0.881900 0.471400
vn 0.000000 0.634400 0.773000
vn 0.000000 0.773000 0.634400
usemtl Material
s off
f 1//1 2//1 3//1 4//1 5//1 6//1
f 1//1 6//1 7//1 4//1 3//1 8//1
f 9//2 1//2 8//2 10//2
f 1//3 9//3 11//3 2//3
f 2//4 11//4 12//4 3//4
f 3//5 12//5 10//5 8//5
f 11//6 13//6 14//6 15//6 16//6 17//6 18//6 19//6 10//6 12//6
f 9//6 10//6 19//6 20//6 21//6 22//6 23//6 24//6 13//6 11//6
f 16//2 15//2 25//2 26//2 24//2 23//2 5//2 4//2
f 17//3 16//3 4//3 7//3
f 6//5 5//5 23//5 22//5
f 13//5 24//5 26//5 27//5 28//5
f 26//7 25//7 29//7 27//7
f 15//3 14//3 30//3 29//3 25//3
f 7//4 6//4 22//4 21//4 31//4 32//4 18//4 17//4
f 14//8 13//8 28//8 30//8
f 28//9 27//9 29//9 30//9
f 19//3 18//3 32//3 33//3 34//3
f 32//10 31//10 35//10 33//10
f 21//5 20//5 36//5 35//5 31//5
f 20//11 19//11 34//11 36//11
f 35//12 36//12 34//12 33//12
