# Blender v2.76 (sub 0) OBJ File: 'vertical_cutout.blend'
# www.blender.org
mtllib vertical_cutout.mtl
o Cube
v 6.499997 0.000000 -6.499997
v 6.499997 0.000000 6.499997
v -6.499998 0.000000 6.499996
v -6.499995 0.000000 -6.500000
v 6.500000 4.000000 -6.499994
v -6.499997 4.000000 -6.499997
v 6.499993 4.000000 6.500001
v -6.500000 4.000000 6.499995
v 1.750000 4.000000 3.575824
v -1.750000 4.000000 -3.575824
v 1.750000 4.000000 -3.575824
v -1.750000 4.000000 3.575824
v 1.750000 3.649345 -3.288050
v 1.750000 3.071057 -2.583406
v 1.750000 2.641350 -1.779483
v 1.750000 2.556569 -1.500000
v 1.750000 3.500000 -1.500000
v 1.750000 3.500000 1.500000
v 1.750000 2.556569 1.500000
v 1.750000 2.641346 1.779474
v 1.750000 3.071052 2.583399
v 1.750000 3.649339 3.288044
v -1.750000 3.649339 3.288044
v -1.750000 3.071053 2.583399
v -1.750000 2.641347 1.779474
v -1.750000 2.556569 1.500000
v -1.750000 2.556570 -1.500000
v -1.750000 2.641350 -1.779483
v -1.750000 3.071058 -2.583406
v -1.750000 3.649346 -3.288050
v -1.750000 3.500000 1.500000
v -1.750000 3.500000 -1.500000
vn 0.000000 -1.000000 0.000000
vn 0.000000 0.000000 -1.000000
vn 1.000000 0.000000 0.000000
vn -0.000000 -0.000000 1.000000
vn -1.000000 -0.000000 -0.000000
vn 0.000000 1.000000 -0.000000
vn 0.000000 0.634400 -0.773000
vn 0.000000 0.773000 -0.634400
vn 0.000000 0.881900 -0.471400
vn 0.000000 0.956900 -0.290300
vn 0.000000 0.956900 0.290300
vn 0.000000 0.881900 0.471400
vn 0.000000 0.773000 0.634400
vn 0.000000 0.634400 0.773000
usemtl Material
s off
f 1//1 2//1 3//1 4//1
f 5//2 1//2 4//2 6//2
f 1//3 5//3 7//3 2//3
f 2//4 7//4 8//4 3//4
f 3//5 8//5 6//5 4//5
f 9//6 7//6 5//6 6//6 10//6 11//6
f 12//6 10//6 6//6 8//6 7//6 9//6
f 9//5 11//5 13//5 14//5 15//5 16//5 17//5 18//5 19//5 20//5 21//5 22//5
f 12//7 9//7 22//7 23//7
f 22//8 21//8 24//8 23//8
f 21//9 20//9 25//9 24//9
f 19//10 26//10 25//10 20//10
f 27//11 16//11 15//11 28//11
f 15//12 14//12 29//12 28//12
f 14//13 13//13 30//13 29//13
f 11//14 10//14 30//14 13//14
f 10//3 12//3 23//3 24//3 25//3 26//3 31//3 32//3 27//3 28//3 29//3 30//3
