# Blender v2.76 (sub 0) OBJ File: 'v1.blend'
# www.blender.org
mtllib v1.mtl
o Cube.003
v -1.000000 2.000000 -3.000000
v -1.000000 4.000000 -3.000000
v -1.000000 2.000000 -5.000000
v -1.000000 4.000000 -5.000000
v 1.000000 2.000000 -3.000000
v 1.000000 4.000000 -3.000000
v 1.000000 2.000000 -5.000000
v 1.000000 4.000000 -5.000000
vn -1.000000 0.000000 0.000000
vn 0.000000 0.000000 -1.000000
vn 1.000000 0.000000 0.000000
vn 0.000000 0.000000 1.000000
vn 0.000000 -1.000000 0.000000
vn 0.000000 1.000000 0.000000
usemtl None
s off
f 2//1 4//1 3//1 1//1
f 4//2 8//2 7//2 3//2
f 8//3 6//3 5//3 7//3
f 6//4 2//4 1//4 5//4
f 1//5 3//5 7//5 5//5
f 6//6 8//6 4//6 2//6
o Cube.002
v -1.000000 6.000000 3.000000
v -1.000000 6.000000 -5.000000
v -1.000000 4.000000 -5.000000
v -1.000000 4.000000 3.000000
v 1.000000 6.000000 3.000000
v 1.000000 6.000000 -5.000000
v 1.000000 4.000000 -5.000000
v 1.000000 4.000000 3.000000
vn -1.000000 0.000000 0.000000
vn 0.000000 1.000000 0.000000
vn 0.000000 0.000000 -1.000000
vn 0.000000 -1.000000 0.000000
vn 1.000000 0.000000 0.000000
vn 0.000000 0.000000 1.000000
usemtl None
s off
f 9//7 10//7 11//7 12//7
f 13//8 14//8 10//8 9//8
f 10//9 14//9 15//9 11//9
f 12//10 11//10 15//10 16//10
f 16//11 15//11 14//11 13//11
f 13//12 9//12 12//12 16//12
o Cube
v 4.999998 0.000000 -4.999997
v 4.999998 0.000000 4.999998
v 1.000000 0.000000 4.999997
v 1.000000 0.000000 3.000000
v -1.000000 0.000000 3.000000
v -1.000000 0.000000 4.999997
v -4.999998 0.000000 4.999997
v -4.999996 0.000000 -5.000000
v 5.000000 2.000000 -4.999995
v -4.999997 2.000000 -4.999998
v 4.999994 2.000000 5.000000
v 1.000000 2.000000 4.999998
v -1.000000 2.000000 4.999998
v -5.000000 2.000000 4.999996
v -1.000000 2.000000 3.000000
v 1.000000 2.000000 3.000000
vn 0.000000 -1.000000 0.000000
vn 0.000000 0.000000 -1.000000
vn 1.000000 0.000000 0.000000
vn -0.000000 -0.000000 1.000000
vn -1.000000 -0.000000 -0.000000
vn 0.000000 1.000000 0.000000
usemtl Material
s off
f 17//13 18//13 19//13 20//13 21//13 22//13 23//13 24//13
f 25//14 17//14 24//14 26//14
f 17//15 25//15 27//15 18//15
f 18//16 27//16 28//16 19//16
f 29//16 30//16 23//16 22//16
f 23//17 30//17 26//17 24//17
f 25//18 26//18 30//18 29//18 31//18 32//18 28//18 27//18
f 31//15 29//15 22//15 21//15
f 32//16 31//16 21//16 20//16
f 20//17 19//17 28//17 32//17
