# Blender v2.76 (sub 0) OBJ File: 'template_cutout.blend'
# www.blender.org
mtllib template_cutout.mtl
o Cube
v -5.781649 -2.000000 1.500000
v -6.499998 -2.000000 6.499996
v -6.499995 -2.000000 -6.500000
v 6.499997 -2.000000 -6.499997
v -2.281649 -2.000000 -1.500000
v -5.781649 -2.000000 -1.500000
v -5.781649 2.000000 -1.500000
v -5.781649 2.000000 1.500000
v -2.281649 -2.000000 1.500000
v 6.499997 -2.000000 6.499997
v -6.500000 2.000000 6.499995
v -6.499997 2.000000 -6.499997
v 6.500000 2.000000 -6.499994
v -3.225079 2.000000 -1.500000
v -2.281649 0.000000 -1.500000
v -3.225079 0.000000 -1.500000
v -3.140298 2.000000 -1.779483
v -2.710591 2.000000 -2.583406
v -2.132303 2.000000 -3.288051
v -1.427657 2.000000 -3.866337
v -0.623732 2.000000 -4.296042
v 0.248576 2.000000 -4.560653
v 1.155739 2.000000 -4.650000
v 2.062909 2.000000 -4.560651
v 2.735519 2.000000 -4.356617
v -3.225080 2.000000 1.500000
v -3.225080 0.000000 1.500000
v -2.281649 0.000000 1.500000
v 6.499993 2.000000 6.500001
v 2.935217 2.000000 -4.296040
v 3.739141 2.000000 -3.866333
v 4.443786 2.000000 -3.288047
v 5.022073 2.000000 -2.583401
v 5.451779 2.000000 -1.779478
v 5.716391 2.000000 -0.907170
v 5.805739 2.000000 -0.000000
v 5.716391 2.000000 0.907169
v 5.451779 2.000000 1.779477
v 5.022073 2.000000 2.583401
v 4.443786 2.000000 3.288047
v 3.739141 2.000000 3.866334
v 2.935217 2.000000 4.296041
v 2.062908 2.000000 4.560652
v 1.155738 2.000000 4.650000
v 0.248568 2.000000 4.560651
v -0.623741 2.000000 4.296039
v -1.427664 2.000000 3.866332
v -2.132309 2.000000 3.288045
v -2.710596 2.000000 2.583399
v -3.140302 2.000000 1.779474
v 1.155739 0.000000 -4.650000
v 2.062909 0.000000 -4.560651
v 2.935217 0.000000 -4.296040
v 0.248576 0.000000 -4.560653
v -0.623732 0.000000 -4.296042
v -1.427657 0.000000 -3.866337
v -2.132303 0.000000 -3.288051
v -2.710591 0.000000 -2.583406
v -3.140298 0.000000 -1.779483
v -3.140302 0.000000 1.779474
v -2.710596 0.000000 2.583399
v -2.132309 0.000000 3.288045
v -1.427664 0.000000 3.866332
v -0.623741 0.000000 4.296039
v 0.248568 0.000000 4.560651
v 1.155738 0.000000 4.650000
v 2.062908 0.000000 4.560652
v 2.935217 0.000000 4.296041
v 3.739141 0.000000 3.866334
v 4.443786 0.000000 3.288047
v 5.022073 0.000000 2.583401
v 5.451779 0.000000 1.779477
v 5.716391 0.000000 0.907169
v 5.805739 0.000000 -0.000000
v 5.716391 0.000000 -0.907170
v 5.451779 0.000000 -1.779478
v 5.022073 0.000000 -2.583401
v 4.443786 0.000000 -3.288047
v 3.739141 0.000000 -3.866333
vn 0.000000 -1.000000 0.000000
vn 1.000000 0.000000 0.000000
vn -1.000000 -0.000000 -0.000000
vn 0.000000 0.000000 -1.000000
vn 0.000000 0.000000 1.000000
vn 0.000000 1.000000 -0.000000
vn -0.098000 0.000000 0.995200
vn -0.290300 0.000000 0.956900
vn 0.098000 0.000000 0.995200
vn -0.471400 0.000000 0.881900
vn -0.634400 0.000000 0.773000
vn -0.773000 0.000000 0.634400
vn -0.881900 0.000000 0.471400
vn -0.956900 0.000000 0.290300
vn -0.995200 0.000000 0.098000
vn -0.995200 0.000000 -0.098000
vn -0.956900 0.000000 -0.290300
vn -0.881900 0.000000 -0.471400
vn -0.773000 0.000000 -0.634400
vn -0.634400 0.000000 -0.773000
vn -0.471400 0.000000 -0.881900
vn -0.290300 0.000000 -0.956900
vn -0.098000 0.000000 -0.995200
vn 0.098000 0.000000 -0.995200
vn 0.290300 0.000000 -0.956900
vn 0.471400 0.000000 -0.881900
vn 0.634400 0.000000 -0.773000
vn 0.773000 0.000000 -0.634400
vn 0.881900 0.000000 -0.471400
vn 0.956900 0.000000 -0.290300
vn 0.956900 0.000000 0.290300
vn 0.881900 0.000000 0.471400
vn 0.773000 0.000000 0.634400
vn 0.634400 0.000000 0.773000
vn 0.471400 0.000000 0.881900
vn 0.290300 0.000000 0.956900
usemtl Material
s off
f 1//1 2//1 3//1 4//1 5//1 6//1
f 7//2 8//2 1//2 6//2
f 1//1 9//1 5//1 4//1 10//1 2//1
f 2//3 11//3 12//3 3//3
f 13//4 4//4 3//4 12//4
f 14//5 7//5 6//5 5//5 15//5 16//5
f 8//6 7//6 14//6 17//6 18//6 19//6 20//6 21//6 22//6 23//6 24//6 25//6 13//6 12//6 11//6
f 8//4 26//4 27//4 28//4 9//4 1//4
f 15//3 5//3 9//3 28//3
f 4//2 13//2 29//2 10//2
f 10//5 29//5 11//5 2//5
f 8//6 11//6 29//6 13//6 25//6 30//6 31//6 32//6 33//6 34//6 35//6 36//6 37//6 38//6 39//6 40//6 41//6 42//6 43//6 44//6 45//6 46//6 47//6 48//6 49//6 50//6 26//6
f 24//7 23//7 51//7 52//7
f 52//8 53//8 30//8 25//8 24//8
f 51//6 54//6 55//6 56//6 57//6 58//6 59//6 16//6 15//6 28//6 27//6 60//6 61//6 62//6 63//6 64//6 65//6 66//6 67//6 68//6 69//6 70//6 71//6 72//6 73//6 74//6 75//6 76//6 77//6 78//6 79//6 53//6 52//6
f 23//9 22//9 54//9 51//9
f 31//10 30//10 53//10 79//10
f 32//11 31//11 79//11 78//11
f 33//12 32//12 78//12 77//12
f 34//13 33//13 77//13 76//13
f 35//14 34//14 76//14 75//14
f 36//15 35//15 75//15 74//15
f 37//16 36//16 74//16 73//16
f 38//17 37//17 73//17 72//17
f 39//18 38//18 72//18 71//18
f 40//19 39//19 71//19 70//19
f 41//20 40//20 70//20 69//20
f 42//21 41//21 69//21 68//21
f 43//22 42//22 68//22 67//22
f 44//23 43//23 67//23 66//23
f 45//24 44//24 66//24 65//24
f 46//25 45//25 65//25 64//25
f 47//26 46//26 64//26 63//26
f 48//27 47//27 63//27 62//27
f 49//28 48//28 62//28 61//28
f 50//29 49//29 61//29 60//29
f 60//30 27//30 26//30 50//30
f 17//31 14//31 16//31 59//31
f 18//32 17//32 59//32 58//32
f 19//33 18//33 58//33 57//33
f 20//34 19//34 57//34 56//34
f 21//35 20//35 56//35 55//35
f 22//36 21//36 55//36 54//36
